<svg xmlns="http://www.w3.org/2000/svg"> 

    
   
     

    <symbol id="btn-menu" viewBox="0 0 32 32">
        <path d="M4 24H28V21.3333H4V24ZM4 17.3333H28V14.6667H4V17.3333ZM4 8V10.6667H28V8H4Z" fill="#356EAD"/>
    </symbol>

    

    <symbol id="logo-header" viewBox="0 0 48 48">
        <g clip-path="url(#clip0_1_284)">
        <circle cx="16" cy="24" r="16" fill="#316099"/>
        <circle cx="32" cy="24" r="15" fill="white" stroke="#316099" stroke-width="2"/>
        <path d="M39.3 30L34.38 16H30.96L26.06 30H29.04L29.88 27.48H35.46L36.3 30H39.3ZM32.68 19.18L34.6 24.9H30.76L32.68 19.18Z" fill="#316099"/>
        </g>
        <defs>
        <clipPath id="clip0_1_284">
        <rect width="48" height="48" fill="white" transform="matrix(1 0 0 -1 0 48)"/>
        </clipPath>
        </defs>
    </symbol>


    <symbol id="logo-footer" viewBox="0 0 48 48">
        
        <circle cx="16" cy="24" r="16" fill="#98C3E8"/>
        <circle cx="32" cy="24" r="15" fill="white" stroke="#316099" stroke-width="2"/>
        <path d="M38.3 31L33.38 17H29.96L25.06 31H28.04L28.88 28.48H34.46L35.3 31H38.3ZM31.68 20.18L33.6 25.9H29.76L31.68 20.18Z" fill="#316099"/>
        
        <defs>
            <clipPath id="clip0_1_524">
            <rect width="48" height="48" fill="white" transform="matrix(1 0 0 -1 0 48)"/>
            </clipPath>
        </defs>
    </symbol>
    
    <symbol id="cros" viewBox="0 0 24 24">
        <path
        d="M18 6L6 18M6 6L18 18"
        stroke="currentColor"
        stroke-width="2"
        stroke-linecap="round"
        />
    </symbol>

    <symbol id="arrow" viewBox="0 0 24 24">
        <path d="M12 4L10.59 5.41L16.17 11H4V13H16.17L10.59 18.59L12 20L20 12L12 4Z" fill="#5A98D0"/>
    </symbol>
</svg>